<svg width="151" height="141" viewBox="0 0 151 141" fill="none" xmlns="http://www.w3.org/2000/svg">
<g clip-path="url(#clip0_5_68)">
<path d="M1.01056 99.7954C1.02119 99.8504 1.03796 99.904 1.06055 99.9553C1.07055 99.9853 1.08054 100.025 1.09054 100.055L12.4989 119.812L12.5289 119.842C12.5489 119.872 12.5689 119.902 12.5989 119.942C12.6375 119.984 12.6811 120.021 12.7288 120.052C12.7588 120.072 12.7788 120.102 12.8088 120.122C12.8206 120.13 12.8347 120.134 12.8488 120.132C12.962 120.196 13.0891 120.23 13.2188 120.232H58.3521L69.5205 139.57L69.5505 139.6C69.5705 139.63 69.5905 139.66 69.6205 139.7C69.6591 139.741 69.7028 139.778 69.7505 139.809C69.7805 139.829 69.8005 139.859 69.8305 139.879C69.8422 139.887 69.8564 139.891 69.8704 139.889C69.9836 139.953 70.1107 139.987 70.2404 139.989H138.68C138.813 139.987 138.944 139.953 139.06 139.889L139.15 139.829C139.235 139.773 139.31 139.702 139.37 139.62C139.38 139.6 139.41 139.59 139.42 139.57L150.829 119.812C150.839 119.792 150.839 119.782 150.849 119.762C150.866 119.731 150.88 119.697 150.889 119.662C150.899 119.622 150.909 119.592 150.919 119.552C150.927 119.516 150.93 119.479 150.929 119.442C150.929 119.422 150.939 119.412 150.939 119.392C150.939 119.372 150.929 119.362 150.929 119.342C150.929 119.302 150.919 119.272 150.919 119.233C150.919 119.193 150.899 119.163 150.889 119.123C150.877 119.089 150.864 119.055 150.849 119.023C150.839 119.003 150.839 118.993 150.829 118.973L128.262 79.8883L139.42 60.5511C139.43 60.5311 139.43 60.5211 139.44 60.5011C139.458 60.4697 139.471 60.4361 139.48 60.4011C139.49 60.3611 139.5 60.3311 139.51 60.2912C139.518 60.2551 139.522 60.2181 139.52 60.1812C139.52 60.1612 139.53 60.1512 139.53 60.1312C139.53 60.1112 139.52 60.1012 139.52 60.0812C139.52 60.0412 139.51 60.0112 139.51 59.9712C139.51 59.9312 139.49 59.9012 139.48 59.8612C139.469 59.8272 139.455 59.7938 139.44 59.7612C139.43 59.7412 139.43 59.7312 139.42 59.7112L105.215 0.429937C105.195 0.399941 105.165 0.379944 105.145 0.349949C105.111 0.304574 105.074 0.261177 105.035 0.219968C104.994 0.186635 104.951 0.156548 104.905 0.129981C104.862 0.100746 104.815 0.0772232 104.765 0.0599911C104.707 0.0408616 104.646 0.0274673 104.585 0.019997C104.555 0.019997 104.525 0 104.485 0H81.6687C81.6487 0 81.6387 0.00999852 81.6187 0.00999852C81.5787 0.00999852 81.5487 0.019997 81.5087 0.019997L81.3888 0.0499926C81.3588 0.0599912 81.3188 0.0799883 81.2888 0.0899868C81.2588 0.0999854 81.2588 0.0999853 81.2388 0.109984C81.2274 0.122334 81.2138 0.1325 81.1988 0.139979C81.1664 0.160129 81.1363 0.183585 81.1088 0.209969C81.0797 0.234053 81.0529 0.260835 81.0288 0.289957C81.0088 0.319953 80.9788 0.349949 80.9588 0.379944C80.9465 0.391338 80.9363 0.404892 80.9288 0.419938L58.3621 39.5142H36.0454C36.0254 39.5142 36.0154 39.5242 35.9954 39.5242C35.9554 39.5242 35.9254 39.5342 35.8854 39.5342C35.8454 39.5342 35.8054 39.5542 35.7755 39.5642C35.7415 39.5758 35.7081 39.5891 35.6755 39.6042C35.6555 39.6142 35.6455 39.6142 35.6255 39.6242C35.6055 39.6342 35.6055 39.6442 35.5855 39.6542C35.5531 39.6743 35.523 39.6978 35.4955 39.7242C35.4664 39.7483 35.4396 39.775 35.4155 39.8042C35.3955 39.8342 35.3655 39.8642 35.3455 39.8941C35.3332 39.9055 35.323 39.9191 35.3155 39.9341L1.10054 99.2154C1.086 99.2472 1.07591 99.2809 1.07055 99.3154C1.04936 99.3672 1.03263 99.4208 1.02055 99.4754C1.00468 99.5272 0.997916 99.5813 1.00056 99.6354C0.998901 99.6889 1.00225 99.7425 1.01056 99.7954ZM103.995 1.69975L137.241 59.2813H116.384L83.1285 1.69975H103.995ZM115.404 98.7955H94.5368L116.374 60.9611H137.241L115.404 98.7955ZM81.6687 2.53963L114.914 60.1212L93.077 97.9556L82.6486 79.8783L93.8169 60.5411C93.8269 60.5211 93.8269 60.5111 93.8369 60.4911C93.8545 60.4597 93.868 60.4261 93.8769 60.3911C93.8869 60.3511 93.8969 60.3211 93.9069 60.2812C93.9152 60.2451 93.9186 60.2081 93.9169 60.1712C93.9169 60.1512 93.9269 60.1412 93.9269 60.1212C93.9269 60.1012 93.9169 60.0912 93.9169 60.0712C93.9169 60.0312 93.9069 60.0012 93.9069 59.9612C93.9069 59.9212 93.8869 59.8912 93.8769 59.8512C93.8653 59.8172 93.852 59.7838 93.8369 59.7512C93.8269 59.7312 93.8269 59.7212 93.8169 59.7012L82.3986 39.9441C82.3786 39.9141 82.3486 39.8941 82.3286 39.8642C82.2944 39.8188 82.2577 39.7754 82.2186 39.7342C82.1777 39.7008 82.1343 39.6707 82.0887 39.6442C82.0441 39.6169 81.9973 39.5935 81.9487 39.5742C81.8941 39.5546 81.8367 39.5444 81.7787 39.5442C81.7487 39.5442 81.7087 39.5242 81.6787 39.5242H60.3219L81.6687 2.53963ZM58.8621 41.214H81.1888L91.6273 59.2813H47.9437L37.5052 41.214H58.8621ZM36.0454 42.0538L46.4739 60.1212L13.2288 117.703L2.80029 99.6354L36.0454 42.0538ZM14.6985 118.543L47.9437 60.9611H91.6273L81.1888 79.0384H58.8621C58.8421 79.0384 58.8321 79.0484 58.8121 79.0484C58.7721 79.0484 58.7421 79.0584 58.7021 79.0584L58.5821 79.0884C58.5521 79.0984 58.5121 79.1184 58.4821 79.1284C58.4521 79.1384 58.4521 79.1384 58.4321 79.1484C58.4207 79.1607 58.4072 79.1709 58.3921 79.1784C58.3598 79.1985 58.3296 79.222 58.3021 79.2484C58.273 79.2725 58.2462 79.2992 58.2222 79.3284C58.2022 79.3584 58.1722 79.3884 58.1522 79.4184C58.1422 79.4283 58.1222 79.4383 58.1222 79.4583L46.7138 99.2154C46.6993 99.2472 46.6892 99.2809 46.6838 99.3154C46.6627 99.3672 46.6459 99.4208 46.6339 99.4754C46.6252 99.5283 46.6219 99.5819 46.6239 99.6354C46.6222 99.6889 46.6256 99.7425 46.6339 99.7954C46.6445 99.8504 46.6613 99.9041 46.6838 99.9553C46.6938 99.9853 46.7038 100.025 46.7138 100.055L57.3923 118.543H14.6985ZM138.22 138.3H71.7302L82.1586 120.232H148.649L138.22 138.3ZM70.2704 137.46L48.4336 99.6354L58.8721 81.558L80.7089 119.382L70.2704 137.46ZM148.649 118.543H82.1586L60.3219 80.7182H81.1888L92.3572 100.055L92.3871 100.085C92.4071 100.121 92.4305 100.154 92.4571 100.185C92.4958 100.227 92.5394 100.264 92.5871 100.295C92.6171 100.315 92.6371 100.345 92.6671 100.365C92.6788 100.373 92.693 100.377 92.7071 100.375C92.8203 100.439 92.9474 100.473 93.077 100.475H115.894C116.027 100.473 116.157 100.439 116.274 100.375L116.364 100.315C116.449 100.259 116.523 100.188 116.584 100.105C116.594 100.085 116.624 100.075 116.634 100.055L127.312 81.558L148.649 118.543Z" fill="white"/>
</g>
<defs>
<clipPath id="clip0_5_68">
<rect width="149.938" height="140" fill="white" transform="translate(0.6875 0.3125)"/>
</clipPath>
</defs>
</svg>
