<svg width="141" height="123" viewBox="0 0 141 123" fill="none" xmlns="http://www.w3.org/2000/svg">
<g clip-path="url(#clip0_5_114)">
<path d="M116.539 102.364C116.549 102.354 116.549 102.334 116.559 102.324C116.578 102.293 116.592 102.26 116.599 102.224C116.609 102.194 116.619 102.154 116.629 102.124C116.637 102.091 116.641 102.058 116.639 102.024C116.639 102.004 116.649 101.994 116.649 101.974C116.649 101.954 116.639 101.944 116.639 101.924C116.639 101.904 116.629 101.854 116.629 101.824C116.629 101.794 116.609 101.754 116.599 101.724C116.588 101.69 116.575 101.656 116.559 101.624C116.549 101.614 116.549 101.594 116.539 101.584L105.323 82.1592H127.745C127.867 82.1554 127.986 82.1247 128.095 82.0692C128.125 82.0492 128.145 82.0292 128.175 82.0092C128.256 81.9584 128.324 81.8901 128.375 81.8093C128.385 81.7893 128.405 81.7793 128.425 81.7593L139.781 62.0943C139.791 62.0843 139.791 62.0643 139.801 62.0543C139.82 62.0237 139.833 61.9898 139.841 61.9544C139.851 61.9244 139.861 61.8844 139.871 61.8544C139.879 61.8218 139.882 61.7881 139.881 61.7544C139.881 61.7344 139.891 61.7244 139.891 61.7044C139.891 61.6844 139.881 61.6744 139.881 61.6544C139.881 61.6345 139.871 61.5845 139.871 61.5545C139.871 61.5245 139.851 61.4845 139.841 61.4545C139.83 61.4202 139.817 61.3868 139.801 61.3545C139.791 61.3445 139.791 61.3245 139.781 61.3145L128.425 41.6496C128.407 41.6242 128.387 41.6007 128.365 41.5796C128.334 41.5348 128.297 41.4944 128.255 41.4596C128.213 41.4273 128.17 41.3973 128.125 41.3697C128.084 41.3437 128.041 41.3235 127.995 41.3097C127.944 41.2901 127.89 41.2799 127.835 41.2797C127.805 41.2797 127.775 41.2597 127.745 41.2597H105.323L116.539 21.8347C116.549 21.8247 116.549 21.8047 116.559 21.7947C116.578 21.764 116.592 21.7302 116.599 21.6947C116.609 21.6647 116.619 21.6247 116.629 21.5947C116.637 21.5621 116.641 21.5284 116.639 21.4947C116.639 21.4748 116.649 21.4648 116.649 21.4448C116.649 21.4248 116.639 21.4148 116.639 21.3948C116.639 21.3748 116.629 21.3248 116.629 21.2948C116.629 21.2648 116.609 21.2248 116.599 21.1948C116.588 21.1605 116.575 21.1271 116.559 21.0948C116.549 21.0849 116.549 21.0649 116.539 21.0549L105.193 1.3899C105.176 1.36451 105.155 1.34106 105.133 1.31992C105.103 1.27755 105.069 1.23745 105.033 1.19995C104.991 1.16763 104.948 1.1376 104.903 1.10997C104.863 1.08405 104.819 1.06386 104.773 1.04999C104.722 1.03041 104.668 1.02025 104.613 1.02C104.583 1.02 104.553 1 104.523 1H81.8212C81.8012 1 81.7912 1.01 81.7712 1.01C81.7512 1.01 81.7012 1.02 81.6712 1.02L81.5613 1.04999C81.5296 1.05905 81.4992 1.07251 81.4712 1.08998C81.4595 1.09793 81.4454 1.10147 81.4313 1.09997L81.4013 1.12997C81.3729 1.14748 81.3462 1.16756 81.3214 1.18995C81.2923 1.21403 81.2654 1.24081 81.2413 1.26993C81.2214 1.29992 81.2014 1.31992 81.1814 1.34991C81.1691 1.3613 81.1589 1.37486 81.1514 1.3899L69.9354 20.8149L58.7194 1.3899C58.7019 1.36451 58.6818 1.34106 58.6593 1.31992C58.6255 1.27749 58.5887 1.2374 58.5494 1.19995C58.5118 1.16987 58.4717 1.14311 58.4294 1.11997C58.3891 1.09404 58.3454 1.07386 58.2995 1.05999C58.2487 1.03953 58.1943 1.02933 58.1395 1.02999C58.1095 1.02999 58.0796 1.01 58.0496 1.01H35.3476C35.3276 1.01 35.3176 1.02 35.2976 1.02C35.2776 1.02 35.2276 1.02999 35.1977 1.02999L35.0877 1.05999C35.056 1.06904 35.0256 1.08251 34.9977 1.09997C34.9859 1.10793 34.9718 1.11147 34.9578 1.10997C34.9464 1.12232 34.9328 1.13249 34.9177 1.13996C34.8893 1.15748 34.8626 1.17755 34.8378 1.19995C34.8087 1.22403 34.7818 1.25081 34.7578 1.27993C34.7378 1.30992 34.7178 1.32992 34.6978 1.35991C34.6855 1.3713 34.6753 1.38485 34.6678 1.3999L23.3218 21.0649C23.3074 21.0932 23.2973 21.1235 23.2918 21.1548C23.2707 21.2032 23.2539 21.2534 23.2418 21.3048C23.2285 21.4043 23.2285 21.5052 23.2418 21.6047C23.2539 21.6561 23.2707 21.7063 23.2918 21.7547C23.2973 21.786 23.3074 21.8163 23.3218 21.8447L34.5379 41.2697H12.1158C12.0958 41.2697 12.0858 41.2797 12.0658 41.2797C12.0458 41.2797 11.9959 41.2897 11.9659 41.2897L11.8559 41.3197C11.8242 41.3287 11.7938 41.3422 11.7659 41.3597C11.7559 41.3697 11.736 41.3697 11.726 41.3796L11.6959 41.4096C11.6675 41.4272 11.6408 41.4472 11.616 41.4696C11.5869 41.4937 11.56 41.5205 11.536 41.5496C11.516 41.5796 11.496 41.5996 11.4761 41.6296C11.4637 41.641 11.4535 41.6545 11.446 41.6696L0.0900553 61.3345C0.0756165 61.3629 0.0654783 61.3932 0.0600366 61.4245C0.0389051 61.4729 0.0221278 61.5231 0.0100054 61.5745C-0.00333514 61.674 -0.00333514 61.7749 0.0100054 61.8744C0.0221278 61.9258 0.0389051 61.976 0.0600366 62.0244C0.0654783 62.0557 0.0756165 62.086 0.0900553 62.1143L11.446 81.7793L11.4761 81.8093C11.4962 81.8416 11.5196 81.8717 11.546 81.8993C11.586 81.9392 11.6259 81.9692 11.6659 82.0092C11.6959 82.0292 11.706 82.0592 11.736 82.0692C11.7477 82.0772 11.7618 82.0807 11.7759 82.0792C11.8844 82.1347 12.0039 82.1654 12.1257 82.1692H34.5479L23.3419 101.594C23.3274 101.623 23.3173 101.653 23.3118 101.684C23.2907 101.733 23.2739 101.783 23.2618 101.834C23.2485 101.934 23.2485 102.035 23.2618 102.134C23.2739 102.185 23.2907 102.236 23.3118 102.284C23.3173 102.315 23.3274 102.346 23.3419 102.374L34.6878 122.039L34.7178 122.069C34.738 122.101 34.7614 122.131 34.7878 122.159C34.8278 122.199 34.8677 122.229 34.9077 122.269C34.9377 122.289 34.9478 122.319 34.9778 122.329C34.9895 122.337 35.0036 122.34 35.0177 122.339C35.1262 122.394 35.2457 122.425 35.3675 122.429H58.0696C58.1914 122.425 58.3109 122.394 58.4194 122.339C58.4494 122.319 58.4694 122.299 58.4994 122.279C58.5802 122.228 58.6486 122.16 58.6994 122.079C58.7094 122.059 58.7293 122.049 58.7493 122.029L69.9654 102.604L81.1814 122.029L81.2114 122.059C81.2316 122.091 81.255 122.121 81.2814 122.149C81.3214 122.189 81.3613 122.219 81.4013 122.259C81.4313 122.279 81.4413 122.309 81.4712 122.319C81.483 122.327 81.4972 122.33 81.5113 122.329C81.6198 122.384 81.7393 122.415 81.8611 122.419H104.563C104.685 122.415 104.804 122.384 104.913 122.329C104.943 122.309 104.963 122.289 104.993 122.269C105.074 122.218 105.142 122.15 105.193 122.069C105.203 122.049 105.223 122.039 105.243 122.019L116.539 102.364ZM104.053 120.849H83.1607L93.607 102.754H114.5L104.053 120.849ZM57.5698 120.849H36.6771L59.0192 82.1592H79.9119L57.5698 120.849ZM13.4353 80.5796L23.8816 62.4842H68.5559L58.1095 80.5796H13.4353ZM12.0758 43.6091L22.5221 61.7044L12.0758 79.7998L1.62943 61.7044L12.0758 43.6091ZM24.8712 21.4348L35.3176 3.3394L57.6597 42.0295L47.2134 60.1248L24.8712 21.4348ZM81.8112 3.3494L92.2575 21.4448L69.9254 60.1348L59.479 42.0395L81.8112 3.3494ZM104.053 2.5596L114.5 20.655H93.607L83.1607 2.5596H104.053ZM127.305 42.8293L137.751 60.9246H93.0773L82.6309 42.8293H127.305ZM81.2614 43.6091L91.2478 60.9146H71.2649L81.2614 43.6091ZM68.5559 60.9146H48.5729L58.5594 43.6091L68.5559 60.9146ZM69.9154 63.274L79.9018 80.5796H59.9189L69.9154 63.274ZM71.2749 62.4942H92.1575L114.49 101.184H93.597L71.2749 62.4942ZM93.9768 62.4942H137.741L127.295 80.5896H104.413L93.9768 62.4942ZM82.6309 41.2497L93.617 22.2246H114.51L103.524 41.2497H82.6309ZM58.5594 40.4699L36.6771 2.5596H57.5698L69.0157 22.3745L58.5594 40.4699ZM45.8439 60.9146H23.8716L13.4253 42.8193H35.3975L45.8439 60.9146ZM57.1999 82.1592L35.3176 120.069L24.8712 101.974L36.3073 82.1592H57.1999ZM81.2614 82.939L92.2475 101.964L81.8012 120.059L70.8151 101.024L81.2614 82.939Z" fill="white"/>
</g>
<defs>
<clipPath id="clip0_5_114">
<rect width="139.891" height="121.438" fill="white" transform="translate(0.359375 0.59375)"/>
</clipPath>
</defs>
</svg>
